# xmcd
#
# Track frame offsets: 
#        150
#        13473
#        25517
#        37354
#        49413
#        60299
#        71236
#        84100
#        101334
#        114513
#        124417
#        135941
#        155339
#        170856
#        181033
#        196814
#        208186
#        219965
#        234171
#        248546
#        260222
#        273402
#        288777
#        299350
#        312892
#        324157
#
# Disc length: 4486 seconds
#
# Revision: 0
# Processed by: cddbd v1.5.2PL0 Copyright (c) Steve Scherf et al.
# Submitted via: ExactAudioCopyFreeDBPlugin 1.0
#
DISCID=7311841a
DTITLE=Clarence Carter - Testifyin' and Patches
DYEAR=2017
DGENRE=Soul
TTITLE0=Bad News
TTITLE1=Snatching It Back
TTITLE2=Soul Deep
TTITLE3=I Smell A Rat
TTITLE4=Doin' Our Thing
TTITLE5=You Can't Miss What You Can't Measure
TTITLE6=Instant Reaction
TTITLE7=Making Love (At The Dark End Of The Street)
TTITLE8=The Feeling Is Right
TTITLE9=Back Door Santa
TTITLE10=I Can't Do Without You
TTITLE11=Willie And Laura Mae Jones
TTITLE12=Say Man
TTITLE13=I'm Just A Prisoner (Of Your Good Lovin')
TTITLE14=Let It Be
TTITLE15=I Can't Leave Your Love Alone
TTITLE16=Your Love Lifted Me
TTITLE17=Till I Can't Take It Anymore
TTITLE18=Patches
TTITLE19=It's All In Your Mind
TTITLE20=Changes
TTITLE21=C.C. Blues
TTITLE22=Getting The Bills (But No Merchandise)
TTITLE23=Johnny Poverty
TTITLE24=I Found What I Wanted
TTITLE25=Say A Little Prayer
EXTD=
EXTT0=
EXTT1=
EXTT2=
EXTT3=
EXTT4=
EXTT5=
EXTT6=
EXTT7=
EXTT8=
EXTT9=
EXTT10=
EXTT11=
EXTT12=
EXTT13=
EXTT14=
EXTT15=
EXTT16=
EXTT17=
EXTT18=
EXTT19=
EXTT20=
EXTT21=
EXTT22=
EXTT23=
EXTT24=
EXTT25=
PLAYORDER=
